<?xml version="1.0" standalone="no"?>
<!DOCTYPE svg PUBLIC "-//W3C//DTD SVG 20010904//EN"
 "http://www.w3.org/TR/2001/REC-SVG-20010904/DTD/svg10.dtd">
<svg version="1.0" xmlns="http://www.w3.org/2000/svg"
 width="640.000000pt" height="480.000000pt" viewBox="0 0 640.000000 480.000000"
 preserveAspectRatio="xMidYMid meet">

<g transform="translate(0.000000,480.000000) scale(0.100000,-0.100000)"
fill="#000000" stroke="none">
<path d="M0 2400 l0 -2400 3200 0 3200 0 0 2400 0 2400 -3200 0 -3200 0 0
-2400z m1506 1984 c-71 -73 -76 -81 -77 -124 -1 -55 2 -415 10 -1085 l6 -510
105 2 c183 4 197 5 170 11 l-25 5 25 6 c25 7 25 9 28 126 2 66 10 217 17 335
l14 215 -5 -295 c-3 -162 -7 -313 -10 -335 -4 -31 -3 -36 5 -23 15 23 44 692
37 853 -3 76 -11 148 -20 173 -19 52 -13 54 13 5 36 -68 22 -25 -23 72 -25 52
-43 95 -41 95 9 0 68 -98 120 -201 65 -130 91 -168 45 -65 -54 119 -25 83 53
-66 41 -79 104 -199 141 -267 65 -122 83 -173 31 -91 -15 23 -29 39 -32 36 -7
-6 -72 82 -97 132 -10 19 -20 31 -23 28 -3 -3 4 -21 16 -41 29 -50 27 -52 -14
-16 -42 37 -51 38 -66 9 -12 -22 -34 -323 -41 -553 l-3 -120 80 -5 c76 -5 78
-6 50 -18 -27 -11 -21 -12 50 -7 44 3 85 11 91 18 11 12 64 144 64 160 0 5 -4
6 -9 2 -6 -3 6 38 26 92 36 96 36 101 35 231 -1 72 2 132 7 132 5 0 6 21 3 46
-3 34 -2 45 7 40 6 -4 11 -20 11 -35 0 -50 12 -94 21 -79 6 9 9 5 9 -14 0 -15
5 -30 11 -33 6 -4 8 -13 5 -21 -9 -24 3 -15 18 14 21 38 20 17 -3 -48 -17 -48
-18 -69 -11 -170 8 -107 30 -313 33 -317 2 -1 186 -11 230 -13 9 0 17 -4 17
-10 0 -6 -47 -10 -120 -10 -73 0 -120 -4 -120 -10 0 -5 12 -10 28 -11 l27 -1
-27 -11 c-35 -14 -35 -13 -3 -241 28 -198 29 -225 9 -151 l-14 50 6 -70 c6
-75 39 -329 78 -595 69 -469 78 -532 72 -537 -3 -4 -6 -1 -6 5 0 35 -53 287
-61 293 -9 5 -21 53 -45 184 -6 36 -8 38 -14 15 -7 -24 -7 -23 -13 10 -18 100
-103 785 -114 920 -8 99 -8 100 -57 100 l-43 0 -28 -72 c-42 -106 -146 -318
-156 -318 -5 0 -23 -25 -40 -55 -36 -64 -47 -72 -23 -17 42 95 66 159 69 177
2 11 11 38 21 60 29 69 55 163 39 141 -20 -26 -19 -13 1 25 8 17 13 33 10 36
-3 3 -39 0 -81 -6 -98 -14 -95 -14 -95 10 0 11 -4 17 -10 14 -5 -3 -10 -16
-10 -29 0 -12 -5 -27 -11 -33 -6 -6 -13 -71 -16 -152 -3 -78 -10 -141 -14
-141 -5 0 -9 -113 -9 -251 0 -164 -3 -248 -10 -244 -6 4 -10 -38 -11 -117 -1
-68 -3 -132 -5 -143 -2 -11 -8 -65 -12 -120 l-7 -100 -8 154 c-4 85 -8 231 -8
325 -1 120 -4 158 -10 126 -4 -25 -9 -67 -10 -95 -1 -27 -6 65 -10 205 -5 140
-6 319 -3 397 l6 142 -27 7 c-15 4 -52 3 -83 -1 -32 -5 -84 -8 -118 -7 l-61 1
-6 -241 c-4 -133 -7 -288 -7 -345 0 -67 -4 -102 -10 -98 -7 4 -9 -79 -8 -242
1 -136 4 -203 5 -148 6 167 23 137 23 -41 0 -87 1 -298 1 -469 1 -171 0 -314
-1 -320 -1 -5 -5 4 -9 20 -4 17 -6 -37 -5 -120 1 -82 0 -128 -3 -100 -2 27 -9
52 -14 56 -6 3 -10 45 -10 92 -1 48 -5 89 -10 93 -5 3 -9 -1 -9 -8 -1 -31 -20
19 -20 52 0 19 -7 48 -15 64 -10 18 -15 59 -16 115 0 47 -3 80 -6 74 -8 -22
-21 -14 -26 15 -2 15 -5 2 -6 -28 -2 -78 -21 -44 -21 38 0 45 3 61 11 56 14
-8 3 114 -12 132 -13 15 -38 234 -49 419 -8 155 -9 152 -6 -95 5 -401 -16
-217 -44 395 -12 241 -25 455 -36 552 l-6 63 -134 0 c-74 0 -134 4 -134 9 0 4
41 11 92 15 139 9 126 23 -22 21 -75 0 -130 3 -130 8 0 6 -65 7 -170 3 -93 -4
-174 -4 -181 -1 -21 13 14 25 76 25 33 0 101 5 151 10 51 5 145 10 210 10 66
1 146 4 179 8 l60 7 -55 5 -55 6 53 8 52 9 1 136 c1 147 4 154 18 46 23 -164
-4 279 -31 515 -6 52 -14 127 -18 165 l-7 70 0 -88 c0 -48 -3 -90 -6 -93 -7
-8 -15 75 -23 246 -3 80 -9 164 -13 187 l-6 42 -65 -49 c-36 -27 -139 -127
-230 -222 -232 -242 -295 -306 -279 -283 7 11 27 36 44 55 17 19 76 94 131
165 56 72 137 171 181 220 43 50 117 137 163 195 88 111 340 400 347 400 3 0
2 -7 -1 -16 -7 -18 6 -12 44 20 l24 21 -24 -32 c-14 -17 -45 -55 -70 -84 -68
-79 -35 -56 96 68 119 112 156 144 162 138 2 -1 -31 -38 -72 -81z m3187 16 c3
-11 2 -18 -3 -15 -4 3 -10 14 -13 25 -3 11 -2 18 3 15 4 -3 10 -14 13 -25z
m17 -92 c0 -43 270 -588 405 -818 57 -97 164 -316 191 -392 7 -20 20 -48 29
-62 30 -45 8 -28 -29 23 -20 26 -50 77 -67 112 -36 72 -108 183 -115 176 -3
-2 12 -32 32 -66 20 -34 35 -64 32 -66 -2 -3 -49 67 -104 155 -103 166 -141
212 -73 88 21 -39 38 -73 36 -74 -2 -2 -26 30 -53 71 -27 41 -53 75 -57 75 -4
0 -5 -37 -2 -82 12 -167 21 -427 19 -569 -1 -80 1 -151 5 -158 6 -9 94 -13
357 -16 192 -2 419 -7 504 -11 l155 -8 -65 -12 c-35 -7 -201 -15 -368 -18
-166 -4 -309 -9 -317 -13 -8 -3 -12 -9 -9 -15 4 -6 52 -7 122 -3 91 5 113 3
99 -5 -11 -7 -56 -15 -100 -19 l-82 -6 90 -6 c57 -3 1 -6 -153 -7 l-244 -2 7
-40 c4 -26 3 -40 -4 -40 -6 0 -11 16 -11 35 0 20 -5 35 -11 35 -8 0 -10 -24
-7 -82 3 -46 2 -92 -3 -103 l-8 -20 0 20 c-1 17 -3 17 -11 5 -5 -8 -10 -80
-11 -160 0 -80 -4 -134 -8 -120 -14 47 -18 -116 -15 -528 1 -244 -1 -400 -7
-397 -5 4 -10 34 -10 68 l-1 62 -12 -55 c-8 -36 -11 -111 -8 -216 3 -114 1
-163 -7 -168 -7 -5 -11 4 -11 26 0 18 -5 40 -10 48 -6 10 -10 -56 -10 -195 0
-115 -4 -216 -9 -223 -16 -26 -22 19 -17 137 4 85 3 99 -3 53 -4 -34 -10 -65
-14 -68 -3 -3 -8 28 -12 69 -8 87 -25 125 -25 57 0 -32 -3 -41 -11 -33 -8 8
-14 227 -20 725 -4 392 -11 797 -15 901 l-7 187 -51 0 c-37 0 -47 3 -36 10 10
7 -29 10 -121 10 l-136 0 0 -202 c0 -112 -3 -219 -6 -238 -5 -23 -4 -28 1 -15
18 40 30 -141 35 -510 0 -38 4 -73 9 -76 4 -3 10 -160 13 -348 2 -189 2 -341
0 -339 -3 3 -12 94 -20 202 -17 218 -20 242 -41 250 -19 7 -18 102 1 136 16
27 20 64 7 56 -5 -3 -14 63 -21 147 -15 188 -24 227 -31 137 l-5 -65 -7 75
c-4 41 -12 152 -17 245 -6 94 -16 257 -23 363 l-12 192 -36 1 -35 1 38 10 c57
15 40 32 -44 42 -66 9 -70 11 -39 17 26 5 15 7 -42 8 -48 0 -78 5 -78 12 0 5
12 9 28 8 15 -1 66 -1 114 -1 l87 2 -3 78 c-3 42 -9 133 -15 202 -6 69 -13
203 -15 298 -3 96 -7 177 -11 180 -3 3 -31 -21 -61 -53 -50 -54 -53 -56 -31
-20 52 89 48 86 -33 -22 -100 -134 -63 -66 86 156 81 122 146 223 143 225 -2
2 -47 -57 -99 -131 -52 -75 -103 -145 -113 -157 l-18 -21 12 25 c7 14 33 57
59 95 26 39 54 84 63 100 23 45 254 355 264 355 5 0 -14 -35 -56 -100 -63 -97
-74 -182 -75 -575 -1 -181 2 -359 6 -395 4 -38 3 -52 -2 -35 -7 26 -8 23 -9
-23 -1 -33 3 -51 9 -47 6 4 10 -16 10 -54 l0 -60 88 -3 c115 -4 261 7 274 20
7 7 12 70 14 164 15 862 19 1146 18 1280 -1 88 2 155 7 152 5 -3 9 -10 9 -16z
m-3010 -308 c11 -22 18 -40 15 -40 -2 0 -14 18 -25 40 -11 22 -18 40 -15 40 2
0 14 -18 25 -40z m3235 -110 c14 -27 25 -53 25 -57 0 -11 -40 55 -51 84 -15
40 0 25 26 -27z m-1285 -495 c0 -5 4 -4 9 4 7 11 18 -2 42 -52 30 -60 34 -65
53 -54 12 6 25 10 30 9 5 -2 27 11 49 29 30 24 37 27 28 11 -6 -12 -15 -24
-21 -27 -5 -3 -19 -20 -32 -37 -18 -27 -19 -31 -4 -25 18 7 15 -4 -11 -34 -12
-15 -11 -23 10 -66 23 -49 105 -196 159 -287 16 -27 27 -54 25 -60 -2 -6 -10
1 -18 15 -8 14 -61 95 -119 179 l-105 152 -89 -93 c-72 -77 -79 -83 -42 -34
26 33 63 79 83 103 19 23 32 42 27 42 -10 0 -142 -150 -187 -212 l-28 -39 63
-65 c35 -36 65 -72 68 -79 3 -8 43 -49 90 -90 47 -42 138 -129 202 -193 l117
-116 28 25 c31 29 93 62 101 54 3 -3 -10 -21 -29 -41 -19 -19 -26 -32 -16 -29
25 10 21 -8 -8 -35 -14 -13 -25 -28 -25 -32 0 -5 14 -29 30 -54 33 -47 30 -57
-7 -23 -18 18 -25 20 -38 9 -12 -10 -15 -10 -15 0 0 12 -160 -152 -245 -250
-30 -34 -22 -29 30 20 75 71 75 70 -85 -110 -36 -40 -69 -78 -75 -84 -5 -7
-23 -26 -39 -43 l-28 -32 23 -37 c19 -31 20 -37 6 -31 -14 5 -13 -2 9 -41 l26
-47 -29 33 c-16 17 -34 32 -40 32 -6 0 -13 7 -17 15 -7 20 -40 19 -72 -1 -22
-15 -24 -15 -18 0 4 10 1 16 -9 16 -12 0 -15 8 -12 30 2 16 6 33 9 38 3 5 -10
31 -28 59 -18 27 -57 92 -86 144 -30 52 -76 132 -103 178 -27 47 -51 94 -53
105 -2 10 -21 49 -43 85 -38 61 -40 80 -9 81 6 0 60 -83 121 -185 30 -49 108
-165 112 -165 2 0 -19 36 -46 81 -28 44 -53 88 -56 97 -5 17 128 -183 202
-303 22 -36 42 -65 45 -65 3 0 34 29 69 64 35 35 69 62 75 60 10 -4 62 49 226
230 39 43 41 47 15 31 -28 -18 -28 -17 8 21 20 22 37 45 37 51 0 5 -40 48 -88
94 -48 46 -169 164 -269 262 -100 97 -186 177 -190 177 -5 0 -33 -24 -63 -52
-49 -48 -61 -51 -22 -5 8 9 12 17 8 17 -5 0 6 16 23 36 26 29 30 38 20 51 -7
8 -13 23 -14 33 -1 17 0 17 24 2 18 -12 12 0 -21 37 -54 63 -55 81 -1 30 20
-19 33 -28 29 -21 -12 21 12 13 28 -9 8 -12 19 -18 25 -15 5 4 38 41 72 84 35
42 80 98 102 124 29 35 37 52 32 65 -5 10 -7 22 -6 28 4 14 -20 88 -32 100 -7
7 -7 5 -2 -4 5 -10 4 -12 -4 -7 -6 4 -9 11 -6 16 3 4 -2 25 -10 46 l-16 39 20
-25 c11 -14 21 -29 21 -35z m-2543 -137 c-2 -13 -4 -3 -4 22 0 25 2 35 4 23 2
-13 2 -33 0 -45z m1363 27 c7 -8 8 -15 2 -15 -5 0 -15 7 -22 15 -7 8 -8 15 -2
15 5 0 15 -7 22 -15z m109 -72 c14 -9 21 -11 17 -5 -9 15 58 -23 105 -60 20
-15 43 -28 51 -28 20 0 338 -218 393 -269 54 -51 57 -76 12 -119 -41 -39 -216
-175 -324 -250 -45 -31 -83 -63 -83 -70 0 -7 26 -64 58 -125 32 -62 66 -132
76 -157 44 -104 420 -854 482 -960 147 -253 213 -372 200 -361 -8 7 -32 41
-53 76 -21 36 -43 65 -50 65 -6 0 -15 10 -18 23 -4 12 -15 31 -25 42 -10 11
-50 75 -88 143 -39 68 -74 122 -78 120 -9 -4 -245 463 -239 473 3 4 -40 103
-96 221 -123 262 -131 278 -139 273 -3 -2 -21 26 -40 61 -19 35 -38 64 -42 64
-8 0 -15 -468 -10 -705 2 -123 1 -128 -13 -95 -11 27 -17 117 -24 400 -6 201
-11 373 -11 383 -1 15 -8 13 -43 -14 -23 -18 -49 -37 -57 -43 -20 -14 37 51
73 82 17 15 27 34 27 50 0 36 -23 109 -49 157 -12 22 -21 43 -21 46 0 14 33 2
46 -16 12 -17 14 -16 24 11 7 16 8 42 4 59 -4 17 -9 111 -11 210 -2 98 -8 184
-14 191 -7 8 -6 13 1 16 7 2 -13 21 -44 42 -58 40 -73 55 -33 35 21 -11 21
-11 -3 16 l-25 28 25 -13 c23 -12 24 -12 11 3 -17 22 -2 22 28 0z m85 -22 c-2
-3 -12 3 -22 13 -16 17 -16 18 5 5 12 -7 20 -15 17 -18z m646 -132 c0 -14 -17
-10 -23 5 -4 10 -1 13 9 9 7 -3 14 -9 14 -14z m-2173 -96 c-3 -10 -5 -2 -5 17
0 19 2 27 5 18 2 -10 2 -26 0 -35z m2303 -127 c0 -2 -7 -9 -15 -16 -13 -11
-14 -10 -9 4 5 14 24 23 24 12z m-870 -137 c0 -21 -17 -6 -33 29 l-17 37 25
-28 c14 -15 25 -32 25 -38z m3598 -16 c-16 -2 -40 -2 -55 0 -16 2 -3 4 27 4
30 0 43 -2 28 -4z m-378 -43 c0 -6 -26 -10 -57 -10 -41 0 -54 3 -43 10 20 13
100 13 100 0z m-248 -12 c-9 -9 -15 -9 -24 0 -9 9 -7 12 12 12 19 0 21 -3 12
-12z m91 5 c-7 -2 -21 -2 -30 0 -10 3 -4 5 12 5 17 0 24 -2 18 -5z m-5255 -70
c3 -10 -16 -13 -71 -13 -104 0 -131 13 -42 21 92 8 108 6 113 -8z m2712 -14
c0 -6 -4 -7 -10 -4 -5 3 -10 11 -10 16 0 6 5 7 10 4 6 -3 10 -11 10 -16z m40
-71 c0 -18 -27 11 -33 35 -6 22 -6 22 14 -2 10 -13 19 -28 19 -33z m-1273
-320 c-2 -13 -4 -3 -4 22 0 25 2 35 4 23 2 -13 2 -33 0 -45z m570 -45 c-3 -10
-5 -2 -5 17 0 19 2 27 5 18 2 -10 2 -26 0 -35z m10 -45 c-3 -8 -6 -5 -6 6 -1
11 2 17 5 13 3 -3 4 -12 1 -19z m-680 -410 c-3 -8 -6 -5 -6 6 -1 11 2 17 5 13
3 -3 4 -12 1 -19z m1715 0 c-7 -7 -12 -8 -12 -2 0 14 12 26 19 19 2 -3 -1 -11
-7 -17z m-993 -451 c1 -10 -3 -15 -9 -12 -5 3 -10 23 -9 43 1 33 2 34 9 12 4
-14 8 -33 9 -43z m2398 -124 c-3 -10 -5 -4 -5 12 0 17 2 24 5 18 2 -7 2 -21 0
-30z m-2320 -70 c-3 -10 -5 -4 -5 12 0 17 2 24 5 18 2 -7 2 -21 0 -30z m2315
-198 c-10 -53 -21 2 -20 105 l1 95 12 -85 c7 -47 10 -98 7 -115z m-1382 31
c-1 -6 -10 0 -20 13 -11 13 -20 28 -20 35 1 6 10 0 20 -13 11 -13 20 -28 20
-35z m1261 -449 c-8 -8 -11 5 -10 49 l1 59 10 -48 c8 -35 7 -52 -1 -60z"/>
<path d="M1967 3485 c9 -19 18 -33 21 -31 4 5 -26 66 -33 66 -3 0 3 -16 12
-35z"/>
<path d="M2251 2741 c-27 -63 -26 -71 4 -71 24 0 25 3 25 60 0 33 -2 60 -4 60
-2 0 -13 -22 -25 -49z"/>
<path d="M1893 2663 c15 -2 37 -2 50 0 12 2 0 4 -28 4 -27 0 -38 -2 -22 -4z"/>
<path d="M1553 2543 c9 -2 23 -2 30 0 6 3 -1 5 -18 5 -16 0 -22 -2 -12 -5z"/>
<path d="M4923 2965 c0 -180 2 -226 8 -165 9 108 9 278 -1 355 -4 37 -7 -34
-7 -190z"/>
<path d="M4277 2733 c-4 -3 -7 -11 -7 -17 0 -6 5 -5 12 2 6 6 9 14 7 17 -3 3
-9 2 -12 -2z"/>
<path d="M5580 2680 c-11 -7 4 -10 48 -10 40 0 61 4 57 10 -8 13 -85 13 -105
0z"/>
<path d="M4315 2619 c-5 -7 25 -8 101 -3 60 3 111 8 113 10 2 2 -43 4 -102 4
-65 0 -108 -4 -112 -11z"/>
<path d="M5085 2610 c3 -5 38 -10 77 -10 89 0 85 5 -10 14 -49 4 -71 3 -67 -4z"/>
<path d="M4775 1130 c-9 -15 4 -118 15 -125 6 -3 7 23 3 62 -6 75 -8 80 -18
63z"/>
<path d="M4717 1101 c-10 -46 -9 -233 1 -227 4 2 9 40 11 83 1 43 7 80 12 83
5 4 3 25 -4 51 l-13 44 -7 -34z"/>
<path d="M3636 1926 c-75 -85 -72 -98 4 -16 53 57 69 80 56 80 -2 0 -29 -29
-60 -64z"/>
<path d="M3419 1945 c17 -33 31 -51 31 -40 0 6 -10 21 -21 35 -13 17 -17 18
-10 5z"/>
<path d="M2785 2989 c110 -67 165 -97 150 -81 -20 21 -220 142 -235 142 -8 0
31 -27 85 -61z"/>
<path d="M2690 2856 l0 -176 58 -1 c31 -1 69 0 85 1 15 1 27 -3 27 -9 0 -7
-31 -11 -85 -11 l-85 0 0 -65 c0 -40 6 -78 15 -96 l16 -30 52 44 c29 25 108
84 177 131 126 88 146 106 137 131 -3 7 -84 61 -179 120 -95 60 -183 115 -195
123 l-23 14 0 -176z"/>
<path d="M2850 2524 c-94 -64 -143 -105 -85 -69 29 17 160 110 180 127 27 23
-10 1 -95 -58z"/>
</g>
</svg>
